<svg width="68" height="68" viewBox="0 0 68 68" fill="none" xmlns="http://www.w3.org/2000/svg">
<path d="M67.4813 34.2547C67.4813 52.8907 52.372 68 33.7387 68C15.1027 68 0 52.8907 0 34.2547C0 15.6173 15.1027 0.511978 33.7387 0.511978C52.372 0.511978 67.4813 15.6173 67.4813 34.2547Z" fill="#F25623"/>
<path d="M42.4309 7.80664C23.7935 7.80664 8.68555 22.9146 8.68555 41.552C8.68555 49.88 11.7082 57.5 16.7109 63.3826C21.7122 66.312 27.5255 68 33.7389 68C52.3722 68 67.4815 52.8907 67.4815 34.2547C67.4815 25.9253 64.4575 18.312 59.4589 12.4253C54.4575 9.49466 48.6415 7.80664 42.4309 7.80664Z" fill="#92191E"/>
<path d="M33.3827 48.0002H2.92676C4.48409 51.4895 6.61477 54.6615 9.20143 57.4028H33.3827C35.9787 57.4028 38.0827 55.2988 38.0827 52.7028C38.0827 50.1042 35.9787 48.0002 33.3827 48.0002Z" fill="#F9B80A"/>
<path d="M27.8574 34.2562C27.8574 36.8535 29.9628 38.9575 32.5601 38.9575H67.148C67.3614 37.4202 67.4814 35.8509 67.4814 34.2549C67.4814 32.6575 67.3614 31.0922 67.148 29.5535H32.5601C29.9628 29.5535 27.8574 31.6589 27.8574 34.2562Z" fill="#431417"/>
<path d="M33.3828 8.47599H11.9761C8.86414 11.108 6.23344 14.292 4.23877 17.8787H33.3828C35.9788 17.8787 38.0828 15.7747 38.0828 13.1773C38.0828 10.5813 35.9788 8.47599 33.3828 8.47599Z" fill="#F9B80A"/>
</svg>
