<svg width="54" height="54" viewBox="0 0 54 54" fill="none" xmlns="http://www.w3.org/2000/svg">
<path d="M41.875 4.68751C54.063 13.0395 57.1723 29.6888 48.8203 41.8755C40.4696 54.0635 23.8196 57.1728 11.632 48.8208C-0.554902 40.4702 -3.6653 23.8195 4.6867 11.6315C13.0383 -0.556511 29.6883 -3.66449 41.875 4.68751Z" fill="#FBCED7"/>
<path d="M4.68652 11.6315C13.0381 -0.556526 29.6881 -3.6645 41.8748 4.6875C54.0628 13.0395 57.1721 29.6888 48.8201 41.8755" fill="#CEA8AB"/>
<path d="M49.8817 27.3073C48.507 29.258 49.0577 30.7313 49.7844 31.2406C50.8377 31.9793 52.2124 31.8726 53.1524 31.0886C53.615 28.2606 53.6124 25.394 53.1724 22.598L49.8817 27.3073Z" fill="#AA663E"/>
<path d="M29.0575 46.9834L24.7324 53.426C26.7856 53.5794 28.8434 53.4941 30.8655 53.1794L33.4508 49.3327C34.3055 48.0581 33.9722 46.3314 32.6922 45.4727C31.9548 44.9794 30.3828 44.9981 29.0575 46.9834Z" fill="#AA663E"/>
<path d="M41.875 4.6874C40.819 3.9634 39.7283 3.33139 38.6163 2.77939L27.7587 18.2981C26.88 19.5594 27.1863 21.2901 28.442 22.1661C29.7003 23.0474 31.4323 22.742 32.3123 21.4847L39.5443 11.1394C40.4216 9.88071 42.1563 9.57673 43.4176 10.4527C44.6683 11.3341 44.9736 13.0621 44.0936 14.3221L39.7043 20.6034C38.827 21.862 39.2203 23.6567 40.5803 24.6034C41.939 25.5527 43.7536 25.3101 44.635 24.0487L50.8523 15.1514C48.8936 11.0701 45.879 7.43006 41.875 4.6874Z" fill="#AA663E"/>
<path d="M22.1949 6.30082C23.4579 7.18482 25.1891 6.87417 26.0698 5.61551L29.8631 0.184842C27.8506 -0.0484915 25.8261 -0.0511727 23.8282 0.170161L22.2922 2.36749C20.9198 4.31949 21.4689 5.79282 22.1949 6.30082Z" fill="#AA663E"/>
<path d="M24.0698 29.9553L12.6225 46.3286C11.9804 47.2446 10.8146 47.6019 9.68701 47.3486C10.3089 47.8619 10.9537 48.3566 11.6318 48.8206C12.8517 49.6579 14.1183 50.3726 15.4157 50.9819L17.1979 48.4326L28.4178 32.3819C29.2922 31.1259 28.9865 29.3939 27.7323 28.5179C27.0031 28.0046 25.4293 28.0059 24.0698 29.9553Z" fill="#AA663E"/>
<path d="M7.19673 45.0034C6.9894 44.2394 7.08473 43.4301 7.54206 42.7714L8.05446 42.0434L17.0697 29.1554C17.9457 27.8928 17.555 26.1074 16.1921 25.1568C14.8363 24.2034 13.0149 24.4554 12.1373 25.7088L7.74513 31.9914C6.86433 33.2474 5.13206 33.5528 3.8722 32.6754C2.6238 31.7981 2.31539 30.0621 3.19459 28.8074L9.15873 20.2701C10.0441 19.0114 9.74099 17.2768 8.48059 16.3954C7.22273 15.5208 5.48939 15.8288 4.61019 17.0848L0.221129 23.3594C-0.767404 31.1381 1.70033 39.1248 7.19673 45.0034Z" fill="#AA663E"/>
</svg>
