<svg width="72" height="72" viewBox="0 0 72 72" fill="none" xmlns="http://www.w3.org/2000/svg">
<path d="M71.5773 36.2106C71.5773 16.4453 55.5533 0.421326 35.7893 0.421326C16.024 0.421326 0 16.4453 0 36.2106C0 55.976 16.024 72 35.7893 72C55.5533 72 71.5773 55.976 71.5773 36.2106Z" fill="#B4DFF6"/>
<path d="M64.0145 58.2C60.9625 62.1133 57.1212 65.3774 52.7212 67.7454H18.8558C14.4572 65.3774 10.6158 62.1133 7.5625 58.2H64.0145Z" fill="#5891D4"/>
<path d="M68.7492 50.1772H2.82926C1.5586 47.1826 0.694583 43.9772 0.28125 40.6332H71.2959C70.8839 43.9772 70.0199 47.1826 68.7492 50.1772Z" fill="#5891D4"/>
<path d="M71.3972 32.6106H0.181152C0.514486 29.2706 1.31584 26.0706 2.50384 23.0666H69.0745C70.2625 26.0706 71.0638 29.2706 71.3972 32.6106Z" fill="#5891D4"/>
<path d="M64.641 15.0427H6.93701C9.75434 11.2067 13.3183 7.95471 17.4157 5.49871H54.1623C58.2597 7.95471 61.8236 11.2067 64.641 15.0427Z" fill="#5891D4"/>
<path d="M52.6693 10.2706C49.4786 10.3093 48.2666 8.58926 48.2546 7.40126C48.2373 5.67993 49.3946 4.24523 50.9706 3.7999C54.4399 5.4279 57.6026 7.59723 60.3559 10.1972L52.6693 10.2706Z" fill="#2E3190"/>
<path d="M15.2066 18.368L4.82666 18.2707C6.21066 15.8893 7.85867 13.6827 9.73467 11.688L15.936 11.7454C17.9893 11.7654 19.6427 13.4386 19.6213 15.5C19.6093 16.688 18.3973 18.4067 15.2066 18.368Z" fill="#2E3190"/>
<path d="M71.5771 36.2106C71.5771 37.9226 71.4491 39.604 71.2171 41.2507L45.8824 41.496C43.8251 41.512 42.1464 39.8653 42.1291 37.816C42.1078 35.7613 43.7544 34.0813 45.8064 34.06L62.6944 33.904C64.7464 33.8867 66.3918 32.2027 66.3811 30.148C66.3531 28.1027 64.6758 26.4573 62.6211 26.476L52.3691 26.5707C50.3198 26.584 48.6371 24.7947 48.6198 22.5787C48.5984 20.36 50.2384 18.54 52.2958 18.5213L66.8198 18.3893C69.8411 23.6373 71.5771 29.72 71.5771 36.2106Z" fill="#2E3190"/>
<path d="M54.9133 56.708C54.892 54.6453 56.5466 52.9733 58.6013 52.952L67.4626 52.872C66.1973 55.2706 64.668 57.504 62.916 59.5413L59.328 59.576C56.1373 59.6147 54.9253 57.8947 54.9133 56.708Z" fill="#2E3190"/>
<path d="M30.2253 36.7506L3.49867 37.0013C2.00267 37.0186 0.72799 38.0332 0.15599 39.4692C0.0559896 38.3972 0 37.3106 0 36.2106C0 34.2319 0.167978 32.2919 0.477311 30.4013L4.63734 30.3612L30.836 30.1186C32.884 30.1013 34.564 31.7492 34.5827 33.7946C34.5987 34.9866 33.4053 36.724 30.2253 36.7506Z" fill="#2E3190"/>
<path d="M0.858887 43.992C1.54689 44.7974 2.51088 45.3054 3.58288 45.2974L4.77487 45.2868L25.8162 45.0827C27.8722 45.0694 29.5469 46.8494 29.5656 49.0761C29.5909 51.2921 27.9376 53.1107 25.8896 53.1307L15.6349 53.2294C13.5829 53.2494 11.9349 54.9294 11.9495 56.9841C11.9735 59.0267 13.6576 60.6774 15.7056 60.6574L29.6402 60.5307C31.6975 60.5054 33.3829 62.1534 33.4002 64.2094C33.4162 66.2601 31.7642 67.9387 29.7149 67.9601L19.4709 68.0601C10.1402 63.2681 3.18955 54.5014 0.858887 43.992Z" fill="#2E3190"/>
<path d="M43.8973 10.2093C43.8973 13.748 41.028 16.6187 37.4893 16.6187C33.948 16.6187 31.0786 13.748 31.0786 10.2093C31.0786 6.66934 33.948 3.79997 37.4893 3.79997C41.028 3.79997 43.8973 6.66934 43.8973 10.2093Z" fill="#2E3190"/>
<path d="M28.0877 29.3092C28.0877 31.8225 26.0504 33.8599 23.5384 33.8599C21.0264 33.8599 18.9917 31.8225 18.9917 29.3092C18.9917 26.7972 21.0264 24.7612 23.5384 24.7612C26.0504 24.7612 28.0877 26.7972 28.0877 29.3092Z" fill="#2E3190"/>
<path d="M60.4372 42.1959C60.4372 45.5826 57.6905 48.3279 54.3039 48.3279C50.9185 48.3279 48.1719 45.5826 48.1719 42.1959C48.1719 38.8092 50.9185 36.0639 54.3039 36.0639C57.6905 36.0639 60.4372 38.8092 60.4372 42.1959Z" fill="#2E3190"/>
<path d="M48.2986 61.1148C48.2986 63.5455 46.328 65.5161 43.8973 65.5161C41.4653 65.5161 39.4946 63.5455 39.4946 61.1148C39.4946 58.6828 41.4653 56.7121 43.8973 56.7121C46.328 56.7121 48.2986 58.6828 48.2986 61.1148Z" fill="#2E3190"/>
</svg>
