<svg width="57" height="57" viewBox="0 0 57 57" fill="none" xmlns="http://www.w3.org/2000/svg">
<path d="M56.2173 28.1107C56.2173 43.6373 43.6293 56.2227 28.108 56.2227C12.5813 56.2227 0 43.6373 0 28.1107C0 12.5853 12.5813 -3.8147e-06 28.108 -3.8147e-06C43.6293 -3.8147e-06 56.2173 12.5853 56.2173 28.1107Z" fill="#F26937"/>
<path d="M35.3469 6.07867C19.8216 6.07867 7.23486 18.6627 7.23486 34.1907C7.23486 41.128 9.75355 47.476 13.9202 52.3747C18.0869 54.816 22.9309 56.2227 28.1082 56.2227C43.6296 56.2227 56.2175 43.6373 56.2175 28.1107C56.2175 21.172 53.6989 14.828 49.5349 9.92399C45.3682 7.48399 40.5216 6.07867 35.3469 6.07867Z" fill="#F9AB76"/>
<path d="M54.9344 36.5253C54.8437 36.2347 54.765 35.9453 54.645 35.656C49.849 24.0373 43.5037 31.572 43.2997 31.7547C43.3011 31.4813 44.6251 21.7187 32.7944 25.9653C22.8384 29.536 24.0944 45.6333 26.0917 56.148C26.7584 56.196 27.4291 56.2227 28.1077 56.2227C40.6984 56.2227 51.357 47.94 54.9344 36.5253Z" fill="#FDDDC7"/>
<path d="M36.8747 5.54525L24.1908 0.278586C19.6508 0.91192 15.4614 2.62792 11.8867 5.15992L32.4721 13.7066C36.5587 15.4092 39.0334 13.8333 39.6654 12.3013C40.7587 9.66926 39.5067 6.64259 36.8747 5.54525Z" fill="#77472E"/>
<path d="M21.5481 50.6067C22.6454 47.9654 21.3881 44.9334 18.7401 43.844L1.30811 36.6C3.73611 44.2814 9.37611 50.5294 16.6494 53.7814C18.7201 53.824 20.7027 52.6307 21.5481 50.6067Z" fill="#77472E"/>
<path d="M22.2743 21.9706L3.65833 14.248C1.46233 18.1106 0.159663 22.5439 0.0209961 27.2719C1.39833 26.3946 3.16503 26.1733 4.7877 26.8466L17.9757 32.3186C20.6077 33.4106 23.7197 31.9826 24.897 29.132C26.089 26.2693 24.9144 23.0746 22.2743 21.9706Z" fill="#77472E"/>
</svg>
