<svg width="157" height="133" viewBox="0 0 157 133" fill="none" xmlns="http://www.w3.org/2000/svg">
<path d="M126.909 56.3399C135.628 81.1625 122.58 108.352 97.7587 117.076C72.948 125.796 45.7533 112.744 37.0351 87.9332C28.3132 63.1132 41.3596 35.9252 66.1773 27.1998C90.992 18.4732 118.181 31.5185 126.909 56.3399Z" fill="#F9B80A"/>
<path d="M66.1772 27.1999C90.9919 18.4733 118.181 31.5186 126.909 56.34C135.628 81.1626 122.58 108.352 97.7586 117.076" fill="#F25623"/>
<path d="M101.4 28.6585L75.8426 37.6479C73.7173 38.3959 72.5959 40.7292 73.3386 42.8545C74.0879 44.9865 76.4226 46.1052 78.5546 45.3492L93.0026 40.2759C95.1266 39.5279 97.464 40.6492 98.2106 42.7652C98.9546 44.8972 97.8386 47.2292 95.7093 47.9786L85.0773 51.7146C82.956 52.4626 81.8786 54.9412 82.6933 57.2386C83.5026 59.5466 85.8759 60.8052 88.0079 60.0612L109.821 52.3906L111.057 51.9519C113.183 51.2145 115.587 52.5239 116.421 54.8986C117.249 57.2679 116.204 59.8052 114.085 60.5559L86.3746 70.2919C83.0786 71.4452 82.4533 73.6745 82.8906 74.9079C83.6373 77.0319 85.9679 78.1479 88.0919 77.4066L115.257 67.8639L124.551 64.5959L128.748 63.1199C128.304 60.8519 127.7 58.5879 126.909 56.3399C122.389 43.4906 112.92 33.8172 101.4 28.6585Z" fill="#BF3222"/>
<path d="M63.2692 72.6587L35.478 82.432C35.8864 84.276 36.3943 86.1107 37.0354 87.9333C39.337 94.4733 42.937 100.199 47.4171 104.911L64.7416 98.8293C66.8763 98.0787 67.9376 95.604 67.1283 93.304C66.3256 91.008 63.9416 89.7413 61.813 90.484L51.1828 94.216C49.0526 94.964 46.7244 93.848 45.9714 91.7293C45.2291 89.596 46.3463 87.2613 48.4744 86.516L65.983 80.3653C68.111 79.6187 69.2296 77.2853 68.4776 75.1547C67.7323 73.0293 65.403 71.912 63.2692 72.6587Z" fill="#F25623"/>
<path d="M15.6381 130.569C10.0652 132.525 6.03862 132.796 4.36409 130.673C-0.276042 124.798 16.9073 106.318 32.1433 91.8358C32.7953 91.2238 33.8167 91.2464 34.4338 91.8944C35.0557 92.5517 35.024 93.5731 34.3829 94.1771C8.74062 118.541 5.85529 127.342 6.90622 128.662C6.93289 128.702 9.82396 131.877 32.6433 118.657C48.2448 109.614 67.755 96.0131 87.5764 80.3451C107.396 64.6784 125.142 48.8424 137.534 35.7517C155.674 16.6037 153.251 13.0464 153.222 13.0184C152.262 11.7957 143.938 12.3237 117.34 29.1984C116.584 29.6784 115.583 29.4544 115.108 28.7011C114.619 27.9504 114.852 26.9491 115.602 26.4664C138.755 11.7811 152.262 6.57842 155.764 11.0064C162.746 19.8478 120.008 58.8304 89.583 82.8824C66.4564 101.168 33.2944 124.364 15.6381 130.569Z" fill="#FBCED7"/>
<path d="M147.095 7.47202C147.539 6.79735 148.423 6.53871 149.172 6.90405C149.971 7.30004 150.3 8.27472 149.905 9.07872C149.66 9.56005 149.401 10.0627 149.097 10.5867C148.645 11.3521 147.653 11.6347 146.887 11.188C146.107 10.7467 145.836 9.75202 146.279 8.98269C146.555 8.51469 146.785 8.06138 146.999 7.64005C147.029 7.57738 147.061 7.52135 147.095 7.47202ZM141.755 15.5773C141.783 15.5427 141.807 15.512 141.833 15.4654C142.169 15.0454 142.487 14.6147 142.792 14.2107C143.337 13.4907 144.345 13.34 145.061 13.876C145.783 14.4067 145.916 15.424 145.395 16.1387C145.075 16.5667 144.745 17.0067 144.399 17.4574C143.853 18.1614 142.832 18.2907 142.121 17.74C141.448 17.2267 141.303 16.2827 141.755 15.5773ZM136.589 21.8174C136.627 21.7547 136.681 21.6933 136.731 21.6333C137.092 21.2267 137.435 20.8201 137.779 20.4201C138.359 19.7414 139.384 19.6614 140.068 20.2467C140.745 20.8373 140.819 21.8654 140.236 22.532C139.892 22.9374 139.535 23.3547 139.164 23.772C138.573 24.444 137.551 24.5094 136.879 23.912C136.269 23.3787 136.156 22.4814 136.589 21.8174ZM131.135 27.7987C131.185 27.728 131.247 27.6427 131.315 27.5773L132.413 26.3947C133.023 25.7387 134.052 25.7094 134.709 26.3214C135.356 26.932 135.384 27.952 134.781 28.6067L133.669 29.7934C133.059 30.4494 132.035 30.4774 131.377 29.86C130.801 29.3227 130.715 28.448 131.135 27.7987ZM125.488 33.6053C125.547 33.5187 125.62 33.4294 125.697 33.3427L126.833 32.2014C127.469 31.572 128.484 31.56 129.128 32.1947C129.759 32.8133 129.759 33.8401 129.14 34.4894L127.988 35.6427C127.347 36.264 126.335 36.276 125.695 35.6347C125.144 35.0907 125.072 34.2373 125.488 33.6053ZM146.24 0.733337C146.589 0.198677 147.231 -0.0999985 147.899 0.0306702C148.555 0.161339 149.128 0.382698 149.611 0.690697C149.809 0.821365 149.983 0.957352 150.153 1.11335C150.801 1.72536 150.831 2.74401 150.221 3.40001C149.608 4.05601 148.579 4.07738 147.924 3.46804C147.759 3.34538 147.591 3.26272 147.289 3.20938C146.417 3.04405 145.837 2.18935 146.008 1.31335C146.051 1.10002 146.127 0.905342 146.24 0.733337ZM119.696 39.276C119.767 39.1734 119.84 39.072 119.933 38.992L121.095 37.868C121.736 37.252 122.767 37.268 123.387 37.9094C124.001 38.5427 123.984 39.572 123.345 40.2027L122.171 41.3307C121.533 41.948 120.507 41.9294 119.884 41.2787C119.352 40.7267 119.295 39.8907 119.696 39.276ZM113.799 44.8333C113.865 44.7213 113.952 44.6241 114.047 44.5227L115.24 43.424C115.9 42.816 116.921 42.852 117.531 43.5067C118.141 44.1694 118.104 45.1787 117.452 45.7973L116.259 46.9C115.6 47.5067 114.58 47.4747 113.967 46.8134C113.452 46.256 113.404 45.436 113.799 44.8333ZM107.805 50.2734C107.885 50.164 107.979 50.0494 108.091 49.9574L109.284 48.8787C109.943 48.2734 110.976 48.328 111.569 48.988C112.175 49.6587 112.121 50.684 111.456 51.2827L110.239 52.3693C109.572 52.9653 108.544 52.908 107.955 52.244C107.461 51.684 107.419 50.8667 107.805 50.2734ZM138.365 2.23601C138.548 1.95068 138.823 1.72137 139.16 1.5987C139.704 1.39471 140.239 1.20802 140.76 1.04935C141.605 0.776024 142.528 1.24003 142.797 2.08803C143.068 2.93469 142.599 3.84937 141.752 4.1267C141.277 4.2787 140.793 4.44935 140.287 4.64135C139.452 4.94535 138.519 4.51739 138.201 3.67872C138.02 3.18138 138.103 2.65201 138.365 2.23601ZM101.731 55.6427C101.815 55.5094 101.909 55.404 102.032 55.3094L103.244 54.2387C103.916 53.652 104.939 53.7214 105.533 54.396C106.125 55.064 106.052 56.0827 105.379 56.676L104.157 57.7467C103.487 58.3333 102.46 58.2627 101.872 57.5947C101.388 57.0374 101.351 56.232 101.731 55.6427ZM95.5788 60.9147C95.6708 60.7907 95.7801 60.6654 95.8974 60.5667L97.1254 59.512C97.8028 58.932 98.8321 59.0147 99.4161 59.7C99.9921 60.3894 99.9121 61.4094 99.2294 61.984L97.9894 63.0307C97.3068 63.616 96.2854 63.5293 95.7028 62.8453C95.2361 62.2853 95.2094 61.5 95.5788 60.9147ZM130.961 5.49734C131.113 5.26534 131.328 5.06538 131.597 4.93471C132.101 4.68804 132.591 4.44672 133.075 4.21472C133.881 3.83205 134.845 4.17868 135.233 4.97202C135.624 5.78401 135.284 6.75471 134.471 7.14005C134.003 7.36005 133.515 7.59068 133.036 7.83868C132.236 8.23734 131.261 7.91338 130.865 7.10671C130.603 6.58005 130.656 5.96267 130.961 5.49734ZM89.3694 66.1133C89.4548 65.976 89.5668 65.856 89.7014 65.752L90.9481 64.7147C91.6321 64.148 92.6494 64.2387 93.2254 64.9334C93.7934 65.612 93.6974 66.6414 93.0094 67.2027L91.7668 68.2453C91.0708 68.8147 90.0481 68.716 89.4841 68.0227C89.0214 67.464 88.9841 66.688 89.3694 66.1133ZM123.811 9.30938C123.953 9.09472 124.149 8.91203 124.38 8.78535L125.796 7.98672C126.576 7.54939 127.564 7.83335 128 8.61069C128.433 9.39868 128.156 10.3841 127.372 10.8174L125.957 11.6027C125.183 12.0427 124.197 11.7733 123.759 10.992C123.451 10.444 123.499 9.79605 123.811 9.30938ZM83.0948 71.224C83.1868 71.0827 83.3014 70.9627 83.4361 70.852L84.6934 69.8334C85.3814 69.272 86.4068 69.3814 86.9708 70.0854C87.5334 70.7747 87.4201 71.7947 86.7241 72.3534L85.4708 73.368C84.7681 73.9347 83.7548 73.824 83.1814 73.128C82.7441 72.5694 82.7228 71.7974 83.0948 71.224ZM76.7588 76.2694C76.8441 76.1214 76.9628 75.9894 77.1121 75.8734L78.3774 74.8747C79.0801 74.3213 80.0934 74.4427 80.6548 75.152C81.2041 75.8427 81.0868 76.868 80.3908 77.4254L79.1094 78.4214C78.4028 78.9734 77.3828 78.8533 76.8334 78.1467C76.3961 77.584 76.3841 76.8307 76.7588 76.2694ZM116.825 13.4094C116.953 13.2147 117.125 13.0441 117.343 12.9147L118.732 12.0747C119.499 11.6053 120.493 11.8574 120.956 12.616C121.417 13.3827 121.172 14.388 120.401 14.8427L119.023 15.6814C118.259 16.1441 117.261 15.896 116.803 15.136C116.464 14.584 116.497 13.9094 116.825 13.4094ZM70.3521 81.232C70.4508 81.0787 70.5708 80.9387 70.7228 80.824L72.0014 79.84C72.7094 79.296 73.7268 79.4307 74.2748 80.144C74.8228 80.8427 74.6881 81.8614 73.9801 82.404L72.6908 83.396C71.9761 83.9427 70.9641 83.8054 70.4201 83.0987C69.9881 82.536 69.9868 81.7894 70.3521 81.232ZM109.968 17.7174C110.088 17.5267 110.253 17.372 110.444 17.2427L111.813 16.3613C112.581 15.8853 113.575 16.1027 114.061 16.8547C114.537 17.6147 114.319 18.6173 113.559 19.0973L112.209 19.968C111.453 20.452 110.451 20.2334 109.961 19.4827C109.609 18.9267 109.625 18.2334 109.968 17.7174ZM63.8761 86.1054C63.9788 85.9534 64.1081 85.812 64.2668 85.6907L65.5708 84.7307C66.2774 84.1867 67.2921 84.3334 67.8321 85.06C68.3708 85.7774 68.2148 86.7894 67.5014 87.324L66.2068 88.288C65.4908 88.828 64.4668 88.684 63.9401 87.9627C63.5228 87.408 63.5174 86.668 63.8761 86.1054ZM57.3534 90.9054C57.4477 90.736 57.5868 90.588 57.7586 90.4747L59.0633 89.5187C59.7873 89 60.7993 89.1573 61.3294 89.88C61.8513 90.596 61.6936 91.6174 60.9638 92.14L59.6498 93.0934C58.9226 93.6227 57.9128 93.4494 57.3852 92.728C56.9878 92.172 56.9898 91.444 57.3534 90.9054ZM50.7368 95.5947C50.8524 95.416 50.992 95.2707 51.1732 95.14L52.4961 94.216C53.2212 93.7093 54.2362 93.888 54.7554 94.608C55.2638 95.3413 55.0982 96.3507 54.3622 96.8667L53.0185 97.8054C52.295 98.3254 51.2784 98.1294 50.769 97.404C50.3805 96.848 50.3904 96.1334 50.7368 95.5947ZM44.055 100.172C44.1805 99.9974 44.3278 99.84 44.5149 99.7187L45.8518 98.812C46.5884 98.304 47.5998 98.5013 48.0988 99.2453C48.6097 99.9827 48.4138 100.996 47.669 101.491L46.3278 102.389C45.5868 102.893 44.5742 102.705 44.0816 101.967C43.6988 101.403 43.7169 100.7 44.055 100.172ZM37.3018 104.628C37.4149 104.44 37.5742 104.273 37.7732 104.148L39.1332 103.272C39.8758 102.789 40.8805 102.999 41.3758 103.76C41.854 104.499 41.6493 105.503 40.8966 105.989L39.5289 106.872C38.7753 107.361 37.7732 107.135 37.2852 106.383C36.9305 105.835 36.9581 105.139 37.3018 104.628ZM30.4278 108.925C30.556 108.724 30.7258 108.557 30.9398 108.429L32.307 107.583C33.0712 107.113 34.0696 107.353 34.5466 108.116C35.0133 108.872 34.7717 109.868 34.0117 110.339L32.6274 111.197C31.8617 111.656 30.8592 111.415 30.3982 110.647C30.0597 110.099 30.0893 109.429 30.4278 108.925ZM23.4332 113.004C23.5701 112.793 23.7602 112.608 24.0013 112.48C24.456 112.227 24.918 111.955 25.3914 111.692C26.169 111.251 27.1612 111.521 27.6018 112.297C28.0436 113.073 27.7721 114.068 27.0013 114.505C26.5206 114.773 26.0445 115.047 25.5764 115.311C24.7898 115.744 23.7988 115.464 23.3726 114.685C23.0674 114.143 23.1092 113.491 23.4332 113.004ZM16.2617 116.789C16.4196 116.549 16.6404 116.356 16.9008 116.211C17.3774 115.991 17.8586 115.753 18.3332 115.504C19.131 115.105 20.107 115.412 20.5149 116.217C20.919 117.012 20.6054 117.991 19.8024 118.399C19.3018 118.644 18.8185 118.897 18.331 119.131C17.5294 119.521 16.5612 119.187 16.1576 118.383C15.907 117.86 15.9669 117.252 16.2617 116.789ZM8.82265 119.989C9.01171 119.703 9.28984 119.471 9.63318 119.357C10.1128 119.177 10.6065 119.003 11.1076 118.796C11.9425 118.472 12.8769 118.879 13.2018 119.715C13.531 120.552 13.1165 121.489 12.2941 121.811C11.7493 122.025 11.2289 122.22 10.719 122.405C9.88051 122.697 8.95651 122.267 8.65185 121.421C8.47745 120.924 8.55545 120.395 8.82265 119.989ZM26.1956 84.5654C26.2576 84.472 26.3326 84.3774 26.4217 84.292L27.4998 83.2493C28.1393 82.6307 29.1622 82.648 29.7893 83.292C30.4029 83.94 30.3873 84.9667 29.7409 85.5894L28.669 86.6147C28.0362 87.244 27.0154 87.2213 26.3941 86.5787C25.8565 86.0267 25.7898 85.1867 26.1956 84.5654ZM0.957046 121.119C1.35971 120.495 2.14984 120.219 2.88104 120.48C3.13051 120.575 3.49038 120.632 3.90651 120.629C4.80238 120.643 5.51798 121.379 5.50598 122.277C5.48411 123.172 4.75132 123.897 3.85865 123.876C3.07318 123.863 2.35705 123.747 1.74931 123.52C0.914382 123.217 0.484644 122.281 0.798778 121.448C0.834644 121.327 0.888379 121.217 0.957046 121.119ZM20.443 90.2787C20.506 90.1853 20.5706 90.1 20.6518 90.0227L21.7914 88.8707C22.4169 88.2307 23.4384 88.2254 24.0841 88.8587C24.7185 89.4827 24.7212 90.516 24.0972 91.1453L22.9633 92.2907C22.3393 92.928 21.3054 92.9467 20.6701 92.316C20.1117 91.7667 20.0294 90.908 20.443 90.2787ZM14.8608 96.144C14.9117 96.0653 14.9608 95.9867 15.0253 95.924L16.1357 94.724C16.7498 94.0694 17.7742 94.0373 18.4264 94.6467C19.0706 95.2547 19.1169 96.284 18.492 96.9387L17.3998 98.1173C16.8002 98.7827 15.7665 98.812 15.1144 98.2027C14.531 97.6667 14.4352 96.784 14.8608 96.144ZM9.48318 102.191C9.51491 102.128 9.55544 102.076 9.59984 102.028C9.94251 101.612 10.2993 101.203 10.6592 100.777C11.2498 100.104 12.2753 100.033 12.9436 100.616C13.6248 101.208 13.6936 102.224 13.1086 102.905C12.7565 103.308 12.4117 103.717 12.0706 104.119C11.4898 104.804 10.4644 104.885 9.78625 104.309C9.15291 103.776 9.03838 102.865 9.48318 102.191ZM0.968512 113.989C1.41225 113.297 2.33318 113.052 3.07838 113.441C3.86278 113.867 4.17478 114.836 3.75345 115.632C3.50972 116.097 3.29878 116.551 3.10398 116.975C2.74558 117.801 1.80238 118.176 0.981582 117.82C0.155449 117.465 -0.221624 116.511 0.133576 115.689C0.344509 115.195 0.603976 114.667 0.888776 114.124C0.911176 114.075 0.937312 114.036 0.968512 113.989ZM4.45185 108.536C4.46078 108.519 4.47784 108.493 4.49251 108.475C4.81544 108.039 5.12998 107.588 5.48411 107.143C6.02211 106.432 7.04037 106.293 7.75131 106.828C8.45811 107.365 8.62584 108.356 8.06331 109.099C7.72691 109.525 7.41224 109.951 7.11438 110.372C6.59611 111.092 5.58572 111.255 4.86492 110.736C4.15132 110.219 3.97998 109.264 4.45185 108.536Z" fill="#F9AB76"/>
</svg>
