<svg width="84" height="84" viewBox="0 0 84 84" fill="none" xmlns="http://www.w3.org/2000/svg">
<path d="M0 41.9745C0 18.7933 18.7933 -7.62939e-06 41.9733 -7.62939e-06C65.156 -7.62939e-06 83.948 18.7933 83.948 41.9745C83.948 65.1548 65.156 83.948 41.9733 83.948C18.7933 83.948 0 65.1548 0 41.9745Z" fill="#D5F1F1"/>
<path d="M8.86914 67.7626C12.4505 72.3522 16.9558 76.1814 22.1145 78.9585H61.8332C66.9932 76.1814 71.4985 72.3522 75.0785 67.7626H8.86914Z" fill="#5AC7C1"/>
<path d="M3.31722 58.3547H80.6306C82.1199 54.8438 83.1332 51.0839 83.6172 47.1599H0.330566C0.814566 51.0839 1.82789 54.8438 3.31722 58.3547Z" fill="#5AC7C1"/>
<path d="M0.210449 37.752H83.7371C83.3464 33.8345 82.4064 30.0811 81.0131 26.5571H2.93447C1.54114 30.0811 0.602449 33.8345 0.210449 37.752Z" fill="#5AC7C1"/>
<path d="M8.13574 17.1465H75.8118C72.5078 12.6478 68.3291 8.83316 63.5238 5.95316H20.4238C15.6198 8.83316 11.4397 12.6478 8.13574 17.1465Z" fill="#5AC7C1"/>
<path d="M22.1772 11.5493C25.9199 11.5959 27.3413 9.57859 27.3546 8.18659C27.3746 6.16659 26.0172 4.48125 24.1692 3.96125C20.0999 5.87058 16.3919 8.41592 13.1626 11.4653L22.1772 11.5493Z" fill="#294093"/>
<path d="M66.1143 21.0481L78.2889 20.9334C76.6663 18.1401 74.7316 15.5507 72.5303 13.2134L65.2583 13.2787C62.8516 13.3054 60.9116 15.2667 60.9343 17.6841C60.9503 19.0761 62.3689 21.0934 66.1143 21.0481Z" fill="#294093"/>
<path d="M0 41.9745C0 43.9813 0.149322 45.9532 0.421322 47.8854L30.1373 48.172C32.5493 48.1917 34.5186 46.26 34.5386 43.8584C34.564 41.4464 32.632 39.4761 30.224 39.4521L10.4187 39.2677C8.01332 39.248 6.08 37.2734 6.096 34.8653C6.128 32.4653 8.0933 30.5333 10.504 30.5573L22.528 30.6666C24.9333 30.684 26.9067 28.5853 26.9253 25.9853C26.9533 23.384 25.0253 21.2506 22.6133 21.228L5.57998 21.0733C2.03598 27.228 0 34.3613 0 41.9745Z" fill="#294093"/>
<path d="M19.5448 66.0131C19.5688 63.5944 17.6302 61.6344 15.2208 61.6079L4.82617 61.5158C6.30884 64.3283 8.10217 66.948 10.1595 69.3371L14.3662 69.3762C18.1102 69.4226 19.5302 67.4054 19.5448 66.0131Z" fill="#294093"/>
<path d="M48.4972 42.6067L79.8438 42.901C81.5985 42.9198 83.0932 44.1119 83.7678 45.7974C83.8798 44.5359 83.9478 43.264 83.9478 41.9744C83.9478 39.652 83.7492 37.3786 83.3878 35.1599L78.5105 35.1132L47.7838 34.8279C45.3812 34.8092 43.4118 36.7426 43.3878 39.1427C43.3718 40.5386 44.7705 42.576 48.4972 42.6067Z" fill="#294093"/>
<path d="M82.9422 51.1001C82.1355 52.0453 81.0048 52.6401 79.7462 52.6335L78.3488 52.6173L53.6715 52.3787C51.2595 52.3641 49.2968 54.4521 49.2728 57.0625C49.2435 59.6616 51.1848 61.7949 53.5835 61.8188L65.6115 61.9335C68.0195 61.9584 69.9515 63.9277 69.9329 66.3387C69.9062 68.7335 67.9315 70.6693 65.5275 70.6453L49.1875 70.4975C46.7729 70.4677 44.7982 72.4011 44.7755 74.8105C44.7582 77.2173 46.6942 79.1865 49.0982 79.2105L61.1115 79.3267C72.0568 73.7079 80.2075 63.4251 82.9422 51.1001Z" fill="#294093"/>
</svg>
