<svg width="101" height="101" viewBox="0 0 101 101" fill="none" xmlns="http://www.w3.org/2000/svg">
<path d="M67.7304 3.37383C93.8344 12.9645 107.22 41.8938 97.629 68.0021C88.0384 94.1021 59.1037 107.488 33.001 97.8964C6.89704 88.3046 -6.48682 59.3713 3.10237 33.2698C12.6957 7.16316 41.6277 -6.21684 67.7304 3.37383Z" fill="#F57814"/>
<path d="M42.9612 65.1593C23.8692 57.703 11.1572 61.9723 3.17725 68.1713C8.13325 81.4724 18.6346 92.6166 33.0013 97.8964C59.1039 107.488 88.0386 94.1021 97.6292 68.0021C99.4546 63.0312 100.445 57.9604 100.672 52.9364C86.6839 71.862 77.5052 78.6473 42.9612 65.1593Z" fill="#92191E"/>
<path d="M98.7134 36.5766C94.3907 21.7552 83.3374 9.10856 67.7307 3.3739C41.628 -6.21677 12.696 7.16323 3.10271 33.2699C0.426713 40.5552 -0.45729 48.0606 0.224043 55.3031L7.39337 52.7355C13.0467 50.7126 18.9267 49.6846 24.868 49.6846C34.6827 49.6846 44.6454 52.5232 54.4787 58.1203C59.248 60.838 64.128 62.214 68.9814 62.2151C68.9814 62.2151 68.9814 62.2151 68.9827 62.2151C85.692 62.2151 93.5827 47.8392 98.7134 36.5766" fill="#F9AB76"/>
<path d="M67.7304 3.3737C41.6278 -6.21697 12.6958 7.16303 3.10243 33.2697C2.61976 34.5817 2.21175 35.9084 1.84375 37.2364C15.3757 32.391 37.2157 29.351 62.6237 43.815C77.4371 52.2484 82.2091 31.179 89.0144 18.371C83.5411 11.8004 76.3317 6.5337 67.7304 3.3737Z" fill="#92191E"/>
<path d="M6.94922 76.0843C12.6412 85.8125 21.5986 93.7057 33.0012 97.8963C49.7772 104.06 67.7132 100.723 80.9412 90.6297C30.7345 88.6297 50.3666 70.5297 6.94922 76.0843Z" fill="#F57814"/>
<path d="M84.3828 13.5204C79.6854 9.2044 74.0934 5.71107 67.7308 3.37374C50.3414 -3.0156 31.7041 0.799065 18.3574 11.7697C59.7361 11.3497 49.2708 20.0031 60.9254 23.0097C66.3268 24.4031 75.5721 19.5391 84.3828 13.5204Z" fill="#F57814"/>
</svg>
