<svg width="643" height="589" viewBox="0 0 643 589" fill="none" xmlns="http://www.w3.org/2000/svg">
<g opacity="0.3" clip-path="url(#clip0_119_1952)">
<path d="M411.955 470.377L418.134 484.239C413.111 483.439 408.441 487.73 408.336 493.242C408.231 498.753 412.71 504.487 417.733 505.27C416.773 509.549 412.631 511.436 409.035 513.165C405.439 514.895 401.564 517.763 401.831 522.323C402.046 525.984 405.072 529.216 408.285 530.515C411.499 531.815 414.87 531.615 418.124 531.397C413.193 536.558 412.712 546.259 417.043 553.219C421.374 560.179 430.023 563.606 436.499 560.927C431.923 566.622 432.917 577.051 438.596 582.928C444.321 588.853 452.617 589.426 459.87 588.802C478.34 587.24 495.939 580.262 510.465 568.741C516.01 564.333 521.189 559.149 524.352 552.387C527.515 545.624 528.447 537.062 525.5 529.367C526.295 539.007 535.939 546.621 544.615 547.047C553.29 547.473 560.865 542.584 567.302 537.009C575.862 529.594 583.788 519.201 582.613 506.378C582.032 500.029 579.26 493.924 576.542 488.01L571.272 476.545C569.145 471.916 566.969 467.209 563.767 463.325C560.565 459.44 556.121 456.433 551.674 456.462C552.69 451.814 553.712 446.992 552.86 442.054C552.008 437.115 548.744 432.001 544.306 430.845C538.658 429.373 533.872 434.588 528.192 434.096C522.726 433.623 518.209 428.135 512.902 425.96C510.717 425.015 508.303 424.728 505.957 425.134C503.611 425.54 501.434 426.621 499.694 428.246C496.329 431.533 494.927 437.085 496.134 442.338C497.192 446.94 500.006 450.999 501.715 455.438C503.423 459.876 503.688 465.583 500.407 468.007C496.448 470.932 490.421 466.952 487.328 462.136C484.235 457.321 482.459 451.49 478.547 447.441C473.931 442.661 466.704 441.541 461.951 444.868C457.197 448.196 455.379 455.647 457.776 461.981C459.735 467.159 464.223 472.398 462.667 477.275C461.022 482.429 453.822 481.777 449.48 478.134C445.137 474.491 442.254 469.005 437.964 465.28C433.608 461.498 427.919 459.841 422.925 460.899C420.391 461.487 418.047 462.704 416.108 464.438C414.168 466.172 412.697 468.366 411.829 470.819" fill="#E6E6E6"/>
<path d="M511.992 431.423L499.172 437.383C497.245 438.335 495.059 438.63 492.949 438.222C491.087 437.782 489.83 436.643 489.499 435.098L486.516 421.157C485.953 418.528 488.13 415.416 491.692 413.76L498.772 410.469C502.334 408.813 506.114 409.156 507.76 411.282L516.484 422.553C517.452 423.803 517.511 425.499 516.647 427.206C515.597 429.083 513.962 430.564 511.992 431.423Z" fill="#3F3D56"/>
<path d="M114.461 173.777C126.513 140.772 145.322 110.649 169.683 85.3376C190.351 63.8711 222.517 64.763 222.517 64.763L222.701 64.5349C230.443 54.9833 240.831 47.9317 252.563 44.2649C264.295 40.598 276.848 40.4792 288.648 43.9233C291.714 44.8038 294.073 45.1941 295.195 44.8019C315.65 37.6394 314.689 21.4729 332.337 8.44934C363.237 -14.3542 465.73 11.7668 480.183 53.7281C491.896 87.7367 544.182 104.22 563.717 130.234C566.771 134.302 569.768 138.417 572.707 142.578C574.085 144.512 575.448 146.46 576.795 148.423C590.635 168.476 603.051 189.476 613.952 211.268C621.1 225.507 627.312 240.196 632.549 255.243C652.921 314.828 645.955 359.222 589.783 348.255C583.133 346.953 576.644 345.788 570.314 344.761C561.148 343.264 552.301 342.034 543.774 341.071C532.292 339.765 521.368 338.909 511.003 338.503C507.517 338.363 504.096 338.269 500.739 338.221C451.096 337.532 414.274 346.88 386.221 361.391C381.466 363.845 376.96 366.441 372.702 369.178C366.2 373.337 359.991 377.939 354.12 382.951C345.995 389.927 338.503 397.608 331.73 405.904L331.358 406.36C298.547 446.515 287.749 490.968 264.926 498.795C167.362 532.258 105.656 410.952 99.3285 292.287C99.009 286.308 98.8325 280.345 98.799 274.4C98.7792 271.742 98.7923 269.092 98.8382 266.448C98.9383 259.552 99.2422 252.7 99.751 245.931C99.941 243.343 100.161 240.769 100.412 238.208C100.689 235.447 100.989 232.702 101.337 229.975C103.819 209.98 108.161 190.958 114.461 173.777Z" fill="#20073C"/>
<path d="M416.86 239.065C409.069 242.695 408.94 258.951 411.383 264.219L415.811 273.753L444.034 260.634L439.606 251.1C437.158 245.834 424.658 235.448 416.86 239.065Z" fill="#3F3D56"/>
<path d="M341.018 375.953C340.521 375.953 340.032 375.833 339.592 375.603C339.151 375.374 338.773 375.041 338.488 374.634C338.203 374.227 338.021 373.757 337.957 373.265C337.892 372.772 337.948 372.271 338.118 371.804C338.256 371.423 338.469 371.073 338.743 370.774C339.017 370.475 339.348 370.234 339.716 370.064L485.467 302.312C485.834 302.141 486.232 302.044 486.637 302.027C487.042 302.01 487.446 302.073 487.826 302.212C488.207 302.351 488.556 302.564 488.855 302.838C489.153 303.112 489.395 303.443 489.565 303.81C489.909 304.553 489.945 305.402 489.664 306.17C489.383 306.939 488.809 307.565 488.067 307.911H488.067L342.316 375.663C341.91 375.854 341.467 375.952 341.018 375.953Z" fill="#3F3D56"/>
<path d="M455.028 266.714L413.365 286.081L478.719 426.817L520.381 407.45L455.028 266.714Z" fill="#E6E6E6"/>
<path d="M298.631 89.5523C290.839 93.1818 290.711 109.439 293.154 114.706L297.582 124.241L325.804 111.121L321.377 101.587C318.929 96.3213 306.428 85.9352 298.631 89.5523Z" fill="#3F3D56"/>
<path d="M473.212 447.602L460.391 453.562C458.464 454.514 456.279 454.809 454.168 454.401C452.307 453.961 451.049 452.822 450.719 451.276L447.736 437.336C447.173 434.706 449.349 431.595 452.911 429.939L459.992 426.648C463.554 424.992 467.334 425.334 468.98 427.461L477.704 438.732C478.672 439.982 478.73 441.678 477.866 443.385C476.817 445.261 475.182 446.743 473.212 447.602Z" fill="#3F3D56"/>
<path d="M433.795 467.168L420.975 473.128C419.047 474.08 416.862 474.375 414.751 473.967C412.89 473.527 411.633 472.388 411.302 470.842L408.319 456.902C407.756 454.273 409.932 451.161 413.495 449.505L420.575 446.214C424.137 444.558 427.917 444.9 429.563 447.027L438.287 458.298C439.255 459.548 439.313 461.244 438.449 462.951C437.4 464.828 435.765 466.309 433.795 467.168Z" fill="#3F3D56"/>
<path d="M347.915 141.141L306.253 160.508L438.358 444.988L480.02 425.621L347.915 141.141Z" fill="#E6E6E6"/>
<path d="M391.144 287.79L386.469 277.498L389.16 276.256L393.821 286.515L461.308 436.228L458.62 437.478" fill="#3F3D56"/>
<path d="M443.871 279.235L439.196 268.943L441.887 267.701L446.548 277.96L514.035 427.673L511.347 428.923" fill="#3F3D56"/>
<path d="M367.58 163.907L311.129 190.148C307.535 184.554 296.701 155.887 299.134 147.381L297.308 139.27L336.286 121.151L341.503 127.572C349.247 129.95 364.324 156.876 367.58 163.907Z" fill="#E6E6E6"/>
<path d="M337.915 121.498L297.692 140.196C296.207 140.886 294.626 140.632 294.16 139.629C294.093 139.484 294.052 139.329 294.038 139.171L291.956 116.951C291.867 116 292.68 114.921 293.923 114.344L320.598 101.944C321.841 101.366 323.189 101.439 323.859 102.121L339.489 118.043C340.288 118.857 339.854 120.251 338.519 121.156C338.327 121.286 338.125 121.4 337.915 121.498Z" fill="#E6E6E6"/>
<path d="M369.463 295.579C369.027 295.581 368.594 295.529 368.17 295.427C367.574 295.303 367.013 295.044 366.532 294.671C366.051 294.297 365.662 293.818 365.394 293.27L340.803 240.314C339.785 238.122 341.151 235.318 343.848 234.064L379.857 217.326C382.554 216.071 385.577 216.836 386.595 219.027L411.186 271.984C411.432 272.542 411.547 273.148 411.522 273.757C411.497 274.366 411.333 274.961 411.043 275.497C410.412 276.711 409.389 277.675 408.14 278.233L372.132 294.972C371.297 295.366 370.386 295.573 369.463 295.579Z" fill="#3F3D56"/>
<path d="M374.387 303.595L332.725 322.962L398.078 463.697L439.741 444.33L374.387 303.595Z" fill="#E6E6E6"/>
<path d="M323.06 123.819L310.842 129.499C308.485 130.595 305.304 128.768 303.753 125.428C302.202 122.088 302.858 118.478 305.216 117.382L317.434 111.703C319.791 110.607 322.972 112.433 324.523 115.773C326.074 119.113 325.418 122.723 323.06 123.819Z" fill="#3F3D56"/>
<path d="M337.032 275.568C329.241 279.197 329.112 295.454 331.555 300.722L335.983 310.256L364.206 297.137L359.778 287.602C357.33 282.337 344.83 271.951 337.032 275.568Z" fill="#3F3D56"/>
<path d="M207.604 243.118C204.852 244.952 202.036 240.586 204.84 238.833C207.592 236.999 210.408 241.365 207.604 243.118Z" fill="#E6E6E6"/>
<path d="M494.04 180.383C491.289 182.217 488.472 177.851 491.277 176.098C494.028 174.264 496.845 178.63 494.04 180.383Z" fill="#E6E6E6"/>
<path d="M298.807 230.286C296.055 232.12 293.239 227.754 296.043 226.001C298.795 224.167 301.611 228.533 298.807 230.286Z" fill="#E6E6E6"/>
<path d="M207.604 401.381C204.852 403.215 202.036 398.849 204.84 397.096C207.592 395.262 210.408 399.628 207.604 401.381Z" fill="#E6E6E6"/>
<path d="M347.972 44.2198C345.22 46.0542 342.404 41.6882 345.208 39.9352C347.96 38.1009 350.777 42.467 347.972 44.2198Z" fill="#E6E6E6"/>
<path d="M212.591 128.342C209.839 130.176 207.023 125.81 209.828 124.057C212.579 122.223 215.396 126.589 212.591 128.342Z" fill="#E6E6E6"/>
<path d="M407.31 104.225L405.559 103.841L405.942 102.089L404.775 101.833L404.391 103.585L402.641 103.202L402.385 104.369L404.135 104.754L403.752 106.505L404.919 106.761L405.303 105.009L407.054 105.393L407.31 104.225Z" fill="#E6E6E6"/>
<path d="M122.228 250.211L120.478 249.827L120.861 248.075L119.694 247.819L119.31 249.571L117.559 249.187L117.303 250.355L119.054 250.739L118.671 252.492L119.838 252.747L120.222 250.995L121.973 251.379L122.228 250.211Z" fill="#E6E6E6"/>
<path d="M481.264 324.679C479.807 325.354 478.142 325.424 476.634 324.872C475.125 324.321 473.898 323.193 473.219 321.737L466.014 306.22C465.339 304.763 465.271 303.098 465.823 301.59C466.375 300.082 467.502 298.855 468.958 298.178C470.413 297.502 472.078 297.431 473.585 297.981C475.093 298.532 476.321 299.658 476.999 301.114L484.205 316.63C484.879 318.088 484.949 319.754 484.398 321.263C483.846 322.772 482.719 324 481.264 324.679Z" fill="#3F3D56"/>
<path d="M358.708 381.711C357.251 382.386 355.586 382.455 354.078 381.904C352.57 381.352 351.342 380.225 350.664 378.769L343.458 363.252C342.784 361.795 342.715 360.129 343.267 358.622C343.819 357.114 344.947 355.887 346.402 355.21C347.858 354.534 349.522 354.463 351.03 355.013C352.538 355.563 353.765 356.69 354.443 358.146L361.649 373.662C362.324 375.12 362.393 376.786 361.842 378.295C361.291 379.804 360.164 381.032 358.708 381.711Z" fill="#3F3D56"/>
<path d="M470.163 290.777L421.849 313.236C418.773 308.448 409.501 283.913 411.583 276.633L412.605 268.49L441.452 254.329L447.845 259.68C456.851 256.633 470.09 278.962 470.163 290.777Z" fill="#E6E6E6"/>
<path d="M447.733 289.22L435.515 294.9C433.158 295.996 429.57 293.294 427.519 288.878C425.469 284.461 425.718 279.976 428.076 278.88L440.294 273.2C442.651 272.104 446.239 274.806 448.29 279.222C450.34 283.639 450.091 288.124 447.733 289.22Z" fill="#3F3D56"/>
<path d="M344.117 318.445L339.442 308.153L342.134 306.911L346.794 317.17L414.281 466.883L411.593 468.132" fill="#3F3D56"/>
<path d="M390.335 327.28L342.022 349.739C334.894 346.057 324.001 321.964 331.755 313.136L332.777 304.992L361.625 290.832L368.017 296.182C374.645 298.217 387.549 321.262 390.335 327.28Z" fill="#E6E6E6"/>
<path d="M366.91 323.582L354.693 329.261C352.335 330.357 348.971 328.135 347.194 324.31C345.418 320.484 345.89 316.479 348.248 315.383L360.466 309.703C362.823 308.607 366.188 310.829 367.964 314.655C369.741 318.48 369.268 322.486 366.91 323.582Z" fill="#3F3D56"/>
<path d="M122.051 219.462C162.583 219.462 195.441 186.587 195.441 146.033C195.441 105.48 162.583 72.605 122.051 72.605C81.5182 72.605 48.6602 105.48 48.6602 146.033C48.6602 186.587 81.5182 219.462 122.051 219.462Z" fill="#FF6584"/>
<path opacity="0.3" d="M422.962 222.512L467.561 92.1882L418.588 220.952C418.346 221.258 418.18 221.617 418.104 221.999C418.029 222.382 418.045 222.777 418.152 223.152C418.26 223.527 418.455 223.871 418.722 224.155C418.988 224.44 419.319 224.657 419.686 224.788C420.054 224.919 420.447 224.96 420.833 224.909C421.22 224.857 421.588 224.714 421.908 224.492C422.229 224.269 422.491 223.974 422.674 223.629C422.858 223.285 422.956 222.902 422.962 222.512H422.962Z" fill="#F0F0F0"/>
<path d="M536.648 144.83C527.918 147.734 518.239 150.585 507.612 153.386C452.644 167.865 378.965 179.16 300.148 185.19C221.331 191.22 146.792 191.264 90.2625 185.314C62.7252 182.416 40.9447 178.247 25.5265 172.923C9.20285 167.288 0.625563 160.496 0.0325387 152.739C-1.12229 137.626 28.6852 124.324 53.894 115.826L54.5768 117.853C19.9584 129.522 1.34466 141.854 2.16421 152.576C3.20757 166.232 35.3997 177.389 90.486 183.187C146.891 189.124 221.293 189.078 299.985 183.058C378.677 177.037 452.22 165.765 507.068 151.317C560.631 137.209 590.755 121.284 589.711 107.627C588.844 96.2889 566.506 86.5894 526.81 80.3145L527.144 78.2021C555.987 82.7616 590.625 91.5392 591.843 107.464C592.435 115.222 584.99 123.239 569.712 131.292C561.003 135.883 549.938 140.412 536.648 144.83Z" fill="#3F3D56"/>
<path d="M558.214 275.063C562.425 275.063 565.839 271.647 565.839 267.433C565.839 263.22 562.425 259.804 558.214 259.804C554.002 259.804 550.588 263.22 550.588 267.433C550.588 271.647 554.002 275.063 558.214 275.063Z" fill="#FF6584"/>
<path d="M606.666 481.803C610.877 481.803 614.292 478.387 614.292 474.173C614.292 469.96 610.877 466.544 606.666 466.544C602.454 466.544 599.04 469.96 599.04 474.173C599.04 478.387 602.454 481.803 606.666 481.803Z" fill="#F2F2F2"/>
<path d="M346.592 528.258C354.804 528.258 361.46 521.598 361.46 513.382C361.46 505.167 354.804 498.507 346.592 498.507C338.381 498.507 331.725 505.167 331.725 513.382C331.725 521.598 338.381 528.258 346.592 528.258Z" fill="#F2F2F2"/>
<path d="M233.301 331.382C237.512 331.382 240.926 327.966 240.926 323.752C240.926 319.538 237.512 316.123 233.301 316.123C229.089 316.123 225.675 319.538 225.675 323.752C225.675 327.966 229.089 331.382 233.301 331.382Z" fill="#3F3D56"/>
<path d="M489.669 341.312L522.571 349.833L542.75 389.49L508.634 390.829L489.669 341.312Z" fill="#E6E6E6"/>
<path d="M413.727 284.142L431.835 302.27L477.826 401.758L469.359 409.077L413.727 284.142Z" fill="#CCCCCC"/>
<path d="M374.354 300.574L375.774 326.164L419.184 426.807L430.283 425.377L374.354 300.574Z" fill="#CCCCCC"/>
<path d="M373.168 403.954L355.448 432.97L368.511 475.508L393.958 452.733L373.168 403.954Z" fill="#E6E6E6"/>
<path d="M529.698 421.783C520.498 421.783 510.414 421.435 499.446 420.74C442.719 417.135 369.24 404.605 292.545 385.457C215.85 366.309 145.101 342.83 93.3318 319.347C68.1136 307.907 48.7587 297.078 35.8055 287.161C22.0914 276.662 16.0927 267.511 17.9752 259.962C21.6433 245.256 54.1226 242.039 80.7235 241.929L80.7325 244.068C44.2025 244.218 22.6516 250.047 20.0495 260.48C16.7349 273.769 43.7672 294.514 94.2145 317.399C145.87 340.83 216.489 364.264 293.063 383.382C369.636 402.499 442.98 415.009 499.582 418.605C554.859 422.118 588.465 416.511 591.779 403.222C594.531 392.189 576.39 375.936 540.699 357.455L541.681 355.556C567.615 368.984 597.718 388.244 593.854 403.74C591.971 411.289 582.378 416.547 565.342 419.369C555.63 420.977 543.702 421.783 529.698 421.783Z" fill="#3F3D56"/>
</g>
<defs>
<clipPath id="clip0_119_1952">
<rect width="643" height="589" fill="white"/>
</clipPath>
</defs>
</svg>
