<svg width="65" height="65" viewBox="0 0 65 65" fill="none" xmlns="http://www.w3.org/2000/svg">
<path d="M50.6616 5.63874C65.4419 15.7281 69.2486 35.8841 59.1611 50.6667C49.0787 65.4441 28.9178 69.2494 14.1418 59.1681C-0.63944 49.0801 -4.44517 28.9254 5.63869 14.1441C15.7199 -0.637253 35.8772 -4.44659 50.6616 5.63874Z" fill="#F46C6F"/>
<path d="M5.63867 14.1441C15.7199 -0.637238 35.8772 -4.44658 50.6616 5.63876C65.4419 15.7281 69.2485 35.8841 59.1611 50.6667" fill="#BA3836"/>
<path d="M25.5286 0.749443L15.1453 15.9735C14.2822 17.2401 14.6082 18.9695 15.8707 19.8361C17.1399 20.7028 18.8691 20.3748 19.7342 19.1015L25.6071 10.5001C26.4702 9.23479 28.2019 8.90546 29.4645 9.76412C30.7317 10.6335 31.0598 12.3601 30.1937 13.6295L25.8733 19.9615C25.0134 21.2255 25.4218 23.0188 26.7931 23.9481C28.1671 24.8868 29.9749 24.6201 30.8437 23.3534L39.7057 10.3601L40.2071 9.62278C41.0738 8.36145 42.9197 8.1108 44.3338 9.0748C45.7415 10.0388 46.1915 11.8521 45.3322 13.1174L34.0713 29.6188C32.7295 31.5788 33.2853 33.0521 34.0223 33.5521C35.2874 34.4148 37.0139 34.0881 37.8795 32.8241L48.9197 16.6494L52.6962 11.1121L54.4009 8.61214C53.2437 7.54814 52.0005 6.55213 50.6619 5.6388C43.0057 0.418797 33.9197 -1.06656 25.5286 0.749443Z" fill="#F9B80A"/>
<path d="M22.3628 40.2241L11.0718 56.7801C12.0395 57.6254 13.0562 58.4268 14.142 59.1681C18.039 61.8241 22.318 63.5108 26.6732 64.2881L33.715 53.9721C34.5832 52.7028 34.1671 50.9187 32.7978 49.9841C31.4322 49.0481 29.6155 49.3161 28.7478 50.5801L24.4254 56.9094C23.5608 58.1788 21.8347 58.5041 20.568 57.6454C19.3024 56.7774 18.9728 55.0467 19.8395 53.7814L26.9556 43.3561C27.8207 42.0881 27.4931 40.3588 26.2223 39.4948C24.9576 38.6308 23.2316 38.9574 22.3628 40.2241Z" fill="#C71E25"/>
<path d="M44.3755 53.2133C43.6421 52.7106 42.0681 52.7186 40.7307 54.6933L33.8525 64.772C36.1156 64.664 38.3577 64.32 40.5463 63.7493L45.1047 57.0786C45.9661 55.8066 45.6468 54.0799 44.3755 53.2133Z" fill="#C71E25"/>
</svg>
