<svg width="1440" height="630" viewBox="0 0 1440 630" fill="none" xmlns="http://www.w3.org/2000/svg">
<g clip-path="url(#clip0_119_1946)">
<path d="M0 578.55L21.92 565.95C43.68 553.35 87.52 528.15 131.2 520.8C174.88 513.45 218.72 523.95 262.08 530.25C305.6 536.55 348.8 538.65 392.32 546C435.68 553.35 479.52 565.95 523.2 568.05C566.88 570.15 610.72 561.75 654.4 560.7C698.08 559.65 741.92 565.95 785.6 565.95C829.28 565.95 873.12 559.65 916.8 555.45C960.48 551.25 1004.32 549.15 1047.68 544.95C1091.2 540.75 1134.4 534.45 1177.92 520.8C1221.28 507.15 1265.12 486.15 1308.8 474.6C1352.48 463.05 1396.32 460.95 1418.08 459.9L1440 458.85V630H1418.08C1396.32 630 1352.48 630 1308.8 630C1265.12 630 1221.28 630 1177.92 630C1134.4 630 1091.2 630 1047.68 630C1004.32 630 960.48 630 916.8 630C873.12 630 829.28 630 785.6 630C741.92 630 698.08 630 654.4 630C610.72 630 566.88 630 523.2 630C479.52 630 435.68 630 392.32 630C348.8 630 305.6 630 262.08 630C218.72 630 174.88 630 131.2 630C87.52 630 43.68 630 21.92 630H0V578.55Z" fill="#1C013A"/>
<path d="M0 509.25L21.92 496.65C43.68 484.05 87.52 458.85 131.2 445.2C174.88 431.55 218.72 429.45 262.08 432.6C305.6 435.75 348.8 444.15 392.32 454.65C435.68 465.15 479.52 477.75 523.2 476.7C566.88 475.65 610.72 460.95 654.4 460.95C698.08 460.95 741.92 475.65 785.6 479.85C829.28 484.05 873.12 477.75 916.8 477.75C960.48 477.75 1004.32 484.05 1047.68 478.8C1091.2 473.55 1134.4 456.75 1177.92 444.15C1221.28 431.55 1265.12 423.15 1308.8 416.85C1352.48 410.55 1396.32 406.35 1418.08 404.25L1440 402.15V460.95L1418.08 462C1396.32 463.05 1352.48 465.15 1308.8 476.7C1265.12 488.25 1221.28 509.25 1177.92 522.9C1134.4 536.55 1091.2 542.85 1047.68 547.05C1004.32 551.25 960.48 553.35 916.8 557.55C873.12 561.75 829.28 568.05 785.6 568.05C741.92 568.05 698.08 561.75 654.4 562.8C610.72 563.85 566.88 572.25 523.2 570.15C479.52 568.05 435.68 555.45 392.32 548.1C348.8 540.75 305.6 538.65 262.08 532.35C218.72 526.05 174.88 515.55 131.2 522.9C87.52 530.25 43.68 555.45 21.92 568.05L0 580.65V509.25Z" fill="#190234"/>
<path d="M0 389.55L21.92 380.1C43.68 370.65 87.52 351.75 131.2 349.65C174.88 347.55 218.72 362.25 262.08 374.85C305.6 387.45 348.8 397.95 392.32 399C435.68 400.05 479.52 391.65 523.2 381.15C566.88 370.65 610.72 358.05 654.4 354.9C698.08 351.75 741.92 358.05 785.6 363.3C829.28 368.55 873.12 372.75 916.8 384.3C960.48 395.85 1004.32 414.75 1047.68 413.7C1091.2 412.65 1134.4 391.65 1177.92 369.6C1221.28 347.55 1265.12 324.45 1308.8 313.95C1352.48 303.45 1396.32 305.55 1418.08 306.6L1440 307.65V404.25L1418.08 406.35C1396.32 408.45 1352.48 412.65 1308.8 418.95C1265.12 425.25 1221.28 433.65 1177.92 446.25C1134.4 458.85 1091.2 475.65 1047.68 480.9C1004.32 486.15 960.48 479.85 916.8 479.85C873.12 479.85 829.28 486.15 785.6 481.95C741.92 477.75 698.08 463.05 654.4 463.05C610.72 463.05 566.88 477.75 523.2 478.8C479.52 479.85 435.68 467.25 392.32 456.75C348.8 446.25 305.6 437.85 262.08 434.7C218.72 431.55 174.88 433.65 131.2 447.3C87.52 460.95 43.68 486.15 21.92 498.75L0 511.35V389.55Z" fill="#16022E"/>
<path d="M0 112.35L21.92 131.25C43.68 150.15 87.52 187.95 131.2 211.05C174.88 234.15 218.72 242.55 262.08 245.7C305.6 248.85 348.8 246.75 392.32 245.7C435.68 244.65 479.52 244.65 523.2 219.45C566.88 194.25 610.72 143.85 654.4 138.6C698.08 133.35 741.92 173.25 785.6 201.6C829.28 229.95 873.12 246.75 916.8 260.4C960.48 274.05 1004.32 284.55 1047.68 262.5C1091.2 240.45 1134.4 185.85 1177.92 173.25C1221.28 160.65 1265.12 190.05 1308.8 200.55C1352.48 211.05 1396.32 202.65 1418.08 198.45L1440 194.25V309.75L1418.08 308.7C1396.32 307.65 1352.48 305.55 1308.8 316.05C1265.12 326.55 1221.28 349.65 1177.92 371.7C1134.4 393.75 1091.2 414.75 1047.68 415.8C1004.32 416.85 960.48 397.95 916.8 386.4C873.12 374.85 829.28 370.65 785.6 365.4C741.92 360.15 698.08 353.85 654.4 357C610.72 360.15 566.88 372.75 523.2 383.25C479.52 393.75 435.68 402.15 392.32 401.1C348.8 400.05 305.6 389.55 262.08 376.95C218.72 364.35 174.88 349.65 131.2 351.75C87.52 353.85 43.68 372.75 21.92 382.2L0 391.65V112.35Z" fill="#130228"/>
<path d="M0 -1.04996H21.92C43.68 -1.04996 87.52 -1.04996 131.2 -1.04996C174.88 -1.04996 218.72 -1.04996 262.08 -1.04996C305.6 -1.04996 348.8 -1.04996 392.32 -1.04996C435.68 -1.04996 479.52 -1.04996 523.2 -1.04996C566.88 -1.04996 610.72 -1.04996 654.4 -1.04996C698.08 -1.04996 741.92 -1.04996 785.6 -1.04996C829.28 -1.04996 873.12 -1.04996 916.8 -1.04996C960.48 -1.04996 1004.32 -1.04996 1047.68 -1.04996C1091.2 -1.04996 1134.4 -1.04996 1177.92 -1.04996C1221.28 -1.04996 1265.12 -1.04996 1308.8 -1.04996C1352.48 -1.04996 1396.32 -1.04996 1418.08 -1.04996H1440V196.35L1418.08 200.55C1396.32 204.75 1352.48 213.15 1308.8 202.65C1265.12 192.15 1221.28 162.75 1177.92 175.35C1134.4 187.95 1091.2 242.55 1047.68 264.6C1004.32 286.65 960.48 276.15 916.8 262.5C873.12 248.85 829.28 232.05 785.6 203.7C741.92 175.35 698.08 135.45 654.4 140.7C610.72 145.95 566.88 196.35 523.2 221.55C479.52 246.75 435.68 246.75 392.32 247.8C348.8 248.85 305.6 250.95 262.08 247.8C218.72 244.65 174.88 236.25 131.2 213.15C87.52 190.05 43.68 152.25 21.92 133.35L0 114.45V-1.04996Z" fill="#100121"/>
</g>
<defs>
<clipPath id="clip0_119_1946">
<rect width="1440" height="630" fill="white" transform="matrix(1 0 0 -1 0 630)"/>
</clipPath>
</defs>
</svg>
